HIERARCHY
ROOT Hips
{
  OFFSET 0 0 0
  CHANNELS 6 Xposition Yposition Zposition Zrotation Yrotation Xrotation
  JOINT LeftThigh
  {
    OFFSET 8.409438 0 -5.917753
    CHANNELS 3 Zrotation Yrotation Xrotation
    JOINT LeftLeg
    {
      OFFSET 0 0 -42.358652
      CHANNELS 3 Zrotation Yrotation Xrotation
      JOINT LeftFoot
      {
        OFFSET 0 0 -39.357303
        CHANNELS 3 Zrotation Yrotation Xrotation
      }
    }
  }
  JOINT RightThigh
  {
    OFFSET -8.409438 0 -5.917753
    CHANNELS 3 Zrotation Yrotation Xrotation
    JOINT RightLeg
    {
      OFFSET 0 0 -42.358652
      CHANNELS 3 Zrotation Yrotation Xrotation
      JOINT RightFoot
      {
        OFFSET 0 0 -39.357303
        CHANNELS 3 Zrotation Yrotation Xrotation
      }
    }
  }
  JOINT SpineLow
  {
    OFFSET 0 0 4.719101
    CHANNELS 3 Zrotation Yrotation Xrotation
    JOINT SpineMid
    {
      OFFSET 0 0 12.899191
      CHANNELS 3 Zrotation Yrotation Xrotation
      JOINT Chest
      {
        OFFSET 0 0 12.899191
        CHANNELS 3 Zrotation Yrotation Xrotation
        JOINT LeftShoulder
        {
          OFFSET 7.550562 1.41573 9.438202
          CHANNELS 3 Zrotation Yrotation Xrotation
          JOINT LeftArm
          {
            OFFSET 9.155056 0 4.247191
            CHANNELS 3 Zrotation Yrotation Xrotation
            JOINT LeftForearm
            {
              OFFSET 0 0 25.771955
              CHANNELS 3 Zrotation Yrotation Xrotation
              JOINT LeftHand
              {
                OFFSET 0 0 25.197169
                CHANNELS 3 Zrotation Yrotation Xrotation
              }
            }
          }
        }
        JOINT RightShoulder
        {
          OFFSET -7.550562 1.41573 9.438202
          CHANNELS 3 Zrotation Yrotation Xrotation
          JOINT RightArm
          {
            OFFSET -9.155056 0 4.247191
            CHANNELS 3 Zrotation Yrotation Xrotation
            JOINT RightForearm
            {
              OFFSET 0 0 -25.771955
              CHANNELS 3 Zrotation Yrotation Xrotation
              JOINT RightHand
              {
                OFFSET 0 0 -25.197169
                CHANNELS 3 Zrotation Yrotation Xrotation
              }
            }
          }
        }
        JOINT Neck
        {
          OFFSET 0 0 15.101124
          CHANNELS 3 Zrotation Yrotation Xrotation
          JOINT Head
          {
            OFFSET 0 0 11.325843
            CHANNELS 3 Zrotation Yrotation Xrotation
            End Site
            {
              OFFSET 0 0 14.157303
            }
          }
        }
      }
    }
  }
}
MOTION
Frames: 14
Frame Time: 0.0
0.0  101.685394  0.0  0.282964  3.923658  -117.31018  12.536133  -15.642065  3.561284  -17.790917  18.103411  31.092171  -6.906549  1.073953  -1.629157  5.911381  -8.740252  -108.859233  17.097816  -3.296259  105.002577  -2.178746  -11.521283  0.986466  -2.826421  0.818675  5.396467  -7.503615  2.849743  14.640037  -7.503616  2.849743  14.640037  -10.739266  28.086107  13.086088  155.202678  46.051704  -146.92924  -40.005537  -13.209302  80.029121  100.235807  13.474685  -13.36027  16.563175  -5.413898  27.701123  60.461327  52.66023  -0.302655  -57.025683  27.803735  -81.869491  90.061049  -10.4345  15.360875  4.949794  -0.699766  -3.831041  3.708086  -0.555923  -2.867801  
0.0  101.685394  0.0  0.023436  3.97496  -116.300277  13.24874  -16.101233  2.230007  -17.442125  18.440726  31.592017  -7.696796  1.081125  -1.920221  5.033245  -8.439139  -107.810098  13.516576  -6.078767  102.160299  -4.577012  -9.060701  2.492464  -3.110128  0.882887  5.329326  -8.265171  3.077984  14.435359  -8.265172  3.077984  14.435359  -9.038359  28.858057  13.378264  160.018059  44.382177  -143.435746  -33.956616  -18.288346  77.875309  95.22675  12.760691  -15.402423  17.310733  -6.804042  28.500513  44.776907  47.839  -11.107706  -48.428356  33.487041  -85.097446  86.614821  -11.317114  21.16319  5.964993  -0.945193  -4.196982  4.467403  -0.749986  -3.138794  
0.0  101.685394  0.0  -0.44409  4.096165  -116.603483  13.557977  -17.046972  1.994226  -17.223338  18.824264  32.182935  -8.213499  1.179529  -2.176356  8.815326  -9.924208  -104.563012  14.692736  -2.158375  99.046788  -4.761874  -7.548328  4.500265  -3.423446  0.773222  5.597371  -9.126879  2.884426  15.163814  -9.126879  2.884426  15.163816  -8.193877  29.717522  12.309222  163.41095  41.899556  -141.1175  -29.424172  -20.902845  77.456841  92.961734  10.177846  -14.71795  17.805291  -6.190283  27.31695  34.053829  42.407737  -16.306691  -43.872428  39.404379  -91.306728  82.375009  -12.475509  24.82652  6.702599  -0.384912  -4.776848  5.024287  -0.341151  -3.578912  
0.0  101.685394  0.0  -0.145702  4.588496  -118.37015  13.453435  -17.676972  3.335476  -17.691886  19.747767  32.519374  -8.208106  1.271407  -2.31428  7.349874  -8.287689  -101.503039  12.673225  -2.734527  100.168028  -4.187905  -6.85087  4.974162  -3.504378  0.751602  6.124063  -9.324182  2.91703  16.599852  -9.324181  2.91703  16.599851  -9.080274  29.767904  11.113833  166.081683  41.043258  -140.574613  -27.856611  -21.426049  78.843423  96.717566  9.658588  -13.014031  16.497596  -4.393842  25.562716  32.357328  41.353998  -16.01545  -43.904926  41.996245  -93.672167  80.692333  -13.085602  24.547269  6.29398  0.341495  -5.48117  4.723985  0.199712  -4.1149  
0.0  101.685394  0.0  -7.29E-4  5.127424  -118.257004  13.756738  -17.875318  2.738034  -18.000935  20.747928  32.861388  -8.225693  1.232679  -2.271976  5.850798  -8.833638  -100.045601  14.376071  -2.853183  102.075007  -2.409112  -7.423449  5.08229  -3.771582  0.771668  5.939681  -10.055202  3.010228  16.079776  -10.055202  3.010228  16.079776  -7.819363  30.050039  12.219575  166.258402  40.853069  -142.664385  -27.526317  -23.689666  79.823345  95.637641  7.86893  -13.784067  16.232391  -3.11367  26.528321  39.034734  44.161098  -10.743955  -44.867255  40.496646  -90.22421  80.898473  -13.544559  22.861266  6.449087  0.909482  -4.754585  4.844136  0.632065  -3.575933  
0.0  101.685394  0.0  0.295237  5.14085  -117.353781  14.600971  -17.832869  1.396419  -18.20718  21.631521  33.231672  -8.243391  1.218605  -2.256635  4.048417  -7.405543  -100.136613  13.939968  -3.165727  105.139555  -0.780501  -7.433087  5.575396  -4.039232  0.918158  5.503748  -10.775304  3.401653  14.854229  -10.775304  3.401653  14.854229  -5.488567  29.782539  13.804596  165.121306  40.899542  -145.413969  -29.120259  -25.525116  81.541269  93.914049  6.947381  -13.780166  17.092153  -2.516641  28.167085  50.060541  47.999859  -1.90951  -48.224992  35.983492  -86.461823  82.42747  -14.390577  20.524969  6.943738  0.986437  -3.781633  5.214015  0.696997  -2.847799  
0.0  101.685394  0.0  0.783955  4.79944  -116.232347  15.603805  -17.530017  0.035018  -18.585498  22.460357  33.455658  -7.78234  1.239183  -2.283602  4.289137  -7.533335  -98.610428  14.681643  -1.267421  106.774832  0.684066  -6.169882  6.625095  -4.155854  1.088898  5.031826  -11.08806  3.812767  13.53386  -11.088059  3.812767  13.533861  -3.674168  29.065024  15.254851  164.220604  41.50706  -147.57559  -31.365166  -25.75131  83.086097  92.693043  5.875312  -13.193819  17.893609  -2.370198  29.640659  61.263061  50.14727  7.346298  -51.704499  33.190648  -82.747558  83.266015  -14.817084  18.683129  7.07945  0.771599  -2.890039  5.313297  0.54532  -2.176782  
0.0  101.685394  0.0  1.327405  4.124955  -115.583529  16.310009  -17.269337  -0.714933  -18.652261  23.114799  33.672106  -7.314899  1.302141  -2.36488  4.616682  -7.306713  -96.543766  14.289692  0.378074  108.756948  2.058098  -4.17916  7.630747  -4.168307  1.245909  4.676668  -11.117484  4.182722  12.540095  -11.117484  4.182721  12.540095  -2.085982  28.550298  16.550543  163.018676  42.731009  -149.584817  -33.512598  -25.749051  84.225178  91.589876  4.595938  -12.671562  18.555619  -2.140632  30.970438  67.549421  50.272298  13.225573  -52.812651  32.743748  -80.805513  82.081302  -14.767815  18.908202  7.06678  0.571428  -2.071107  5.302049  0.404691  -1.560173  
0.0  101.685394  0.0  1.724019  3.162805  -115.200581  16.665821  -17.20498  -1.180185  -17.910783  23.450069  34.130591  -7.10117  1.34928  -2.452122  5.266191  -7.48677  -93.749904  13.611009  1.272576  110.94358  2.766134  -1.971466  8.16165  -4.070093  1.321023  4.440453  -10.853836  4.330353  11.891231  -10.853836  4.330353  11.891231  -0.902941  28.628174  17.602849  162.126834  44.432382  -150.994992  -35.10266  -25.664714  85.187972  90.32751  3.394145  -12.238582  18.931475  -1.902292  31.756651  69.157377  49.556983  15.901543  -52.137336  32.899309  -80.208798  81.294744  -14.553449  19.866473  6.863605  0.494681  -1.434436  5.148866  0.354955  -1.081538  
0.0  101.685394  0.0  1.969602  2.236293  -114.973824  16.649733  -17.208948  -1.537166  -16.515315  23.505529  34.843637  -6.982985  1.407591  -2.477442  5.686628  -8.073124  -90.042592  13.203128  1.753897  112.932339  3.153581  0.106709  8.306539  -3.882579  1.346253  4.244073  -10.35248  4.33563  11.365124  -10.352479  4.33563  11.365124  -0.035589  28.644061  18.699772  161.944985  46.000214  -151.485914  -35.795651  -25.326571  85.943977  89.200175  2.297908  -11.68051  18.907123  -1.805417  32.332612  68.755498  48.733385  17.11215  -51.131544  32.9742  -80.455054  81.240834  -14.233071  20.402262  6.394329  0.406221  -0.824809  4.796285  0.296075  -0.622936  
0.0  101.685394  0.0  2.171346  1.432333  -114.775665  16.560769  -17.172271  -1.867259  -14.957305  23.247132  35.649242  -7.288819  1.445929  -2.617338  5.969405  -8.373485  -85.744222  12.962651  2.221617  114.551471  3.251828  1.691093  8.421796  -3.592075  1.359113  4.07859  -9.569681  4.298012  10.932316  -9.56968  4.298011  10.932315  0.141988  28.474266  19.648462  162.318075  47.363354  -151.34952  -35.761407  -25.104479  86.391632  88.438598  1.166366  -11.144017  18.394589  -2.05154  33.05567  68.101184  48.267429  18.161268  -50.467719  33.145615  -81.125169  80.726139  -13.57757  20.438511  5.593109  0.184121  -0.301509  4.19492  0.135345  -0.227839  
0.0  101.685394  0.0  2.396878  0.714301  -114.419203  16.737886  -17.118303  -2.315219  -13.418134  22.831441  36.470027  -7.778001  1.476402  -2.774487  6.162471  -8.074966  -81.216511  12.31483  2.466502  115.809182  2.54092  3.144776  8.534772  -3.261096  1.34215  3.962861  -8.677128  4.183103  10.641386  -8.677128  4.183103  10.641387  -0.160315  28.288466  20.089934  162.724399  48.616792  -150.890667  -35.329252  -25.243633  86.468837  87.606649  0.104893  -10.680285  17.750537  -2.352458  33.316281  67.289431  47.768739  18.942905  -49.67293  33.353811  -81.756216  79.737913  -12.620547  20.519198  4.694573  -0.027341  -0.089903  3.520925  -0.021198  -0.067221  
0.0  101.685394  0.0  2.638213  0.076755  -113.926256  17.15826  -17.028869  -2.817256  -12.069682  22.287891  37.120844  -8.576491  1.478239  -2.966081  6.257905  -7.362873  -76.531316  11.361527  2.610802  116.745242  1.067443  4.645558  8.666152  -2.955511  1.321204  3.92766  -7.848732  4.073498  10.568128  -7.848732  4.073498  10.568129  -0.694195  27.87564  19.623277  162.741379  49.69288  -150.501881  -34.848169  -25.662017  86.213807  86.767393  -0.939303  -10.199578  17.143564  -2.612669  32.932235  67.392905  47.38066  20.604906  -49.384933  32.689368  -82.687615  78.711896  -11.659219  20.532417  3.937616  -0.277228  -0.340388  2.953053  -0.210125  -0.253517  
0.0  101.685394  0.0  2.860368  -0.477039  -113.323416  17.759626  -16.983664  -3.292772  -10.775152  21.560588  37.651705  -9.416166  1.564856  -3.142009  6.2716  -6.361713  -71.821875  10.35147  2.906961  117.437265  -1.006736  6.271162  8.923334  -2.687721  1.289473  3.953987  -7.121113  3.947609  10.66069  -7.121113  3.947609  10.66069  -1.119548  27.553948  18.526309  162.008971  50.892086  -150.473459  -34.446561  -26.184177  85.743514  85.675103  -2.079119  -9.759811  16.69682  -2.824166  32.110727  67.127344  47.041778  21.716041  -48.739013  31.736435  -83.728279  77.709149  -10.90203  20.474691  3.399539  -0.534871  -0.902967  2.548852  -0.406192  -0.674269  
